<?xml version="1.0" encoding="UTF-8"?>
<svg version="1.1" xmlns="http://www.w3.org/2000/svg" width="1024" height="1024">
<path d="M0 0 C63.36 0 126.72 0 192 0 C192 10.56 192 21.12 192 32 C202.56 32 213.12 32 224 32 C224 95.36 224 158.72 224 224 C234.56 224 245.12 224 256 224 C256 213.44 256 202.88 256 192 C277.12 192 298.24 192 320 192 C320 202.56 320 213.12 320 224 C330.56 224 341.12 224 352 224 C352 192.32 352 160.64 352 128 C362.56 128 373.12 128 384 128 C384 117.44 384 106.88 384 96 C394.56 96 405.12 96 416 96 C416 85.44 416 74.88 416 64 C437.12 64 458.24 64 480 64 C480 74.56 480 85.12 480 96 C490.56 96 501.12 96 512 96 C512 85.44 512 74.88 512 64 C522.56 64 533.12 64 544 64 C544 53.44 544 42.88 544 32 C575.68 32 607.36 32 640 32 C640 42.56 640 53.12 640 64 C650.56 64 661.12 64 672 64 C672 85.12 672 106.24 672 128 C682.56 128 693.12 128 704 128 C704 138.56 704 149.12 704 160 C714.56 160 725.12 160 736 160 C736 202.24 736 244.48 736 288 C725.44 288 714.88 288 704 288 C704 298.56 704 309.12 704 320 C693.44 320 682.88 320 672 320 C672 330.56 672 341.12 672 352 C682.56 352 693.12 352 704 352 C704 362.56 704 373.12 704 384 C714.56 384 725.12 384 736 384 C736 405.12 736 426.24 736 448 C725.44 448 714.88 448 704 448 C704 458.56 704 469.12 704 480 C693.44 480 682.88 480 672 480 C672 490.56 672 501.12 672 512 C661.44 512 650.88 512 640 512 C640 522.56 640 533.12 640 544 C629.44 544 618.88 544 608 544 C608 533.44 608 522.88 608 512 C597.44 512 586.88 512 576 512 C576 501.44 576 490.88 576 480 C565.44 480 554.88 480 544 480 C544 490.56 544 501.12 544 512 C533.44 512 522.88 512 512 512 C512 522.56 512 533.12 512 544 C490.88 544 469.76 544 448 544 C448 533.44 448 522.88 448 512 C426.88 512 405.76 512 384 512 C384 533.12 384 554.24 384 576 C405.12 576 426.24 576 448 576 C448 586.56 448 597.12 448 608 C437.44 608 426.88 608 416 608 C416 618.56 416 629.12 416 640 C405.44 640 394.88 640 384 640 C384 671.68 384 703.36 384 736 C405.12 736 426.24 736 448 736 C448 725.44 448 714.88 448 704 C458.56 704 469.12 704 480 704 C480 693.44 480 682.88 480 672 C532.8 672 585.6 672 640 672 C640 682.56 640 693.12 640 704 C650.56 704 661.12 704 672 704 C672 714.56 672 725.12 672 736 C682.56 736 693.12 736 704 736 C704 778.24 704 820.48 704 864 C693.44 864 682.88 864 672 864 C672 874.56 672 885.12 672 896 C661.44 896 650.88 896 640 896 C640 906.56 640 917.12 640 928 C629.44 928 618.88 928 608 928 C608 938.56 608 949.12 608 960 C597.44 960 586.88 960 576 960 C576 970.56 576 981.12 576 992 C586.56 992 597.12 992 608 992 C608 1002.56 608 1013.12 608 1024 C354.56 1024 101.12 1024 -160 1024 C-160 1013.44 -160 1002.88 -160 992 C-128.32 992 -96.64 992 -64 992 C-64 970.88 -64 949.76 -64 928 C-53.44 928 -42.88 928 -32 928 C-32 906.88 -32 885.76 -32 864 C-21.44 864 -10.88 864 0 864 C0 832.32 0 800.64 0 768 C10.56 768 21.12 768 32 768 C32 736.32 32 704.64 32 672 C21.44 672 10.88 672 0 672 C0 661.44 0 650.88 0 640 C-10.56 640 -21.12 640 -32 640 C-32 618.88 -32 597.76 -32 576 C-21.44 576 -10.88 576 0 576 C0 565.44 0 554.88 0 544 C10.56 544 21.12 544 32 544 C32 522.88 32 501.76 32 480 C0.32 480 -31.36 480 -64 480 C-64 469.44 -64 458.88 -64 448 C-74.56 448 -85.12 448 -96 448 C-96 426.88 -96 405.76 -96 384 C-106.56 384 -117.12 384 -128 384 C-128 373.44 -128 362.88 -128 352 C-138.56 352 -149.12 352 -160 352 C-160 341.44 -160 330.88 -160 320 C-170.56 320 -181.12 320 -192 320 C-192 309.44 -192 298.88 -192 288 C-202.56 288 -213.12 288 -224 288 C-224 256.32 -224 224.64 -224 192 C-213.44 192 -202.88 192 -192 192 C-192 181.44 -192 170.88 -192 160 C-181.44 160 -170.88 160 -160 160 C-160 138.88 -160 117.76 -160 96 C-149.44 96 -138.88 96 -128 96 C-128 85.44 -128 74.88 -128 64 C-96.32 64 -64.64 64 -32 64 C-32 53.44 -32 42.88 -32 32 C-21.44 32 -10.88 32 0 32 C0 21.44 0 10.88 0 0 Z M288 224 C288 234.56 288 245.12 288 256 C298.56 256 309.12 256 320 256 C320 245.44 320 234.88 320 224 C309.44 224 298.88 224 288 224 Z M352 480 C352 490.56 352 501.12 352 512 C362.56 512 373.12 512 384 512 C384 501.44 384 490.88 384 480 C373.44 480 362.88 480 352 480 Z " fill="#41272C" transform="translate(256,0)"/>
<path d="M0 0 C10.56 0 21.12 0 32 0 C32 10.56 32 21.12 32 32 C63.68 32 95.36 32 128 32 C128 42.56 128 53.12 128 64 C149.12 64 170.24 64 192 64 C192 53.44 192 42.88 192 32 C202.56 32 213.12 32 224 32 C224 21.44 224 10.88 224 0 C276.8 0 329.6 0 384 0 C384 10.56 384 21.12 384 32 C394.56 32 405.12 32 416 32 C416 42.56 416 53.12 416 64 C426.56 64 437.12 64 448 64 C448 106.24 448 148.48 448 192 C437.44 192 426.88 192 416 192 C416 202.56 416 213.12 416 224 C405.44 224 394.88 224 384 224 C384 234.56 384 245.12 384 256 C373.44 256 362.88 256 352 256 C352 266.56 352 277.12 352 288 C341.44 288 330.88 288 320 288 C320 298.56 320 309.12 320 320 C330.56 320 341.12 320 352 320 C352 330.56 352 341.12 352 352 C235.84 352 119.68 352 0 352 C0 341.44 0 330.88 0 320 C-10.56 320 -21.12 320 -32 320 C-32 309.44 -32 298.88 -32 288 C-42.56 288 -53.12 288 -64 288 C-64 214.08 -64 140.16 -64 64 C-53.44 64 -42.88 64 -32 64 C-32 53.44 -32 42.88 -32 32 C-21.44 32 -10.88 32 0 32 C0 21.44 0 10.88 0 0 Z " fill="#381C3F" transform="translate(512,672)"/>
<path d="M0 0 C10.56 0 21.12 0 32 0 C32 21.12 32 42.24 32 64 C53.12 64 74.24 64 96 64 C96 74.56 96 85.12 96 96 C85.44 96 74.88 96 64 96 C64 106.56 64 117.12 64 128 C53.44 128 42.88 128 32 128 C32 149.12 32 170.24 32 192 C0.32 192 -31.36 192 -64 192 C-64 181.44 -64 170.88 -64 160 C-74.56 160 -85.12 160 -96 160 C-96 170.56 -96 181.12 -96 192 C-106.56 192 -117.12 192 -128 192 C-128 202.56 -128 213.12 -128 224 C-138.56 224 -149.12 224 -160 224 C-160 297.92 -160 371.84 -160 448 C-149.44 448 -138.88 448 -128 448 C-128 458.56 -128 469.12 -128 480 C-117.44 480 -106.88 480 -96 480 C-96 490.56 -96 501.12 -96 512 C-233.28 512 -370.56 512 -512 512 C-512 501.44 -512 490.88 -512 480 C-480.32 480 -448.64 480 -416 480 C-416 458.88 -416 437.76 -416 416 C-405.44 416 -394.88 416 -384 416 C-384 394.88 -384 373.76 -384 352 C-373.44 352 -362.88 352 -352 352 C-352 320.32 -352 288.64 -352 256 C-341.44 256 -330.88 256 -320 256 C-320 224.32 -320 192.64 -320 160 C-330.56 160 -341.12 160 -352 160 C-352 149.44 -352 138.88 -352 128 C-362.56 128 -373.12 128 -384 128 C-384 106.88 -384 85.76 -384 64 C-341.76 64 -299.52 64 -256 64 C-256 74.56 -256 85.12 -256 96 C-192.64 96 -129.28 96 -64 96 C-64 85.44 -64 74.88 -64 64 C-42.88 64 -21.76 64 0 64 C0 42.88 0 21.76 0 0 Z " fill="#56182C" transform="translate(608,512)"/>
<path d="M0 0 C63.36 0 126.72 0 192 0 C192 10.56 192 21.12 192 32 C202.56 32 213.12 32 224 32 C224 74.24 224 116.48 224 160 C213.44 160 202.88 160 192 160 C192 170.56 192 181.12 192 192 C181.44 192 170.88 192 160 192 C160 202.56 160 213.12 160 224 C149.44 224 138.88 224 128 224 C128 234.56 128 245.12 128 256 C106.88 256 85.76 256 64 256 C64 266.56 64 277.12 64 288 C53.44 288 42.88 288 32 288 C32 319.68 32 351.36 32 384 C21.44 384 10.88 384 0 384 C0 415.68 0 447.36 0 480 C-21.12 480 -42.24 480 -64 480 C-64 469.44 -64 458.88 -64 448 C-74.56 448 -85.12 448 -96 448 C-96 426.88 -96 405.76 -96 384 C-106.56 384 -117.12 384 -128 384 C-128 373.44 -128 362.88 -128 352 C-138.56 352 -149.12 352 -160 352 C-160 341.44 -160 330.88 -160 320 C-170.56 320 -181.12 320 -192 320 C-192 309.44 -192 298.88 -192 288 C-202.56 288 -213.12 288 -224 288 C-224 256.32 -224 224.64 -224 192 C-213.44 192 -202.88 192 -192 192 C-192 181.44 -192 170.88 -192 160 C-181.44 160 -170.88 160 -160 160 C-160 138.88 -160 117.76 -160 96 C-149.44 96 -138.88 96 -128 96 C-128 85.44 -128 74.88 -128 64 C-96.32 64 -64.64 64 -32 64 C-32 53.44 -32 42.88 -32 32 C-21.44 32 -10.88 32 0 32 C0 21.44 0 10.88 0 0 Z " fill="#45234E" transform="translate(256,0)"/>
<path d="M0 0 C10.56 0 21.12 0 32 0 C32 21.12 32 42.24 32 64 C42.56 64 53.12 64 64 64 C64 53.44 64 42.88 64 32 C85.12 32 106.24 32 128 32 C128 42.56 128 53.12 128 64 C117.44 64 106.88 64 96 64 C96 127.36 96 190.72 96 256 C74.88 256 53.76 256 32 256 C32 266.56 32 277.12 32 288 C53.12 288 74.24 288 96 288 C96 309.12 96 330.24 96 352 C85.44 352 74.88 352 64 352 C64 362.56 64 373.12 64 384 C42.88 384 21.76 384 0 384 C0 394.56 0 405.12 0 416 C-10.56 416 -21.12 416 -32 416 C-32 405.44 -32 394.88 -32 384 C-42.56 384 -53.12 384 -64 384 C-64 394.56 -64 405.12 -64 416 C-106.24 416 -148.48 416 -192 416 C-192 405.44 -192 394.88 -192 384 C-181.44 384 -170.88 384 -160 384 C-160 362.88 -160 341.76 -160 320 C-170.56 320 -181.12 320 -192 320 C-192 288.32 -192 256.64 -192 224 C-181.44 224 -170.88 224 -160 224 C-160 192.32 -160 160.64 -160 128 C-149.44 128 -138.88 128 -128 128 C-128 117.44 -128 106.88 -128 96 C-106.88 96 -85.76 96 -64 96 C-64 85.44 -64 74.88 -64 64 C-53.44 64 -42.88 64 -32 64 C-32 53.44 -32 42.88 -32 32 C-21.44 32 -10.88 32 0 32 C0 21.44 0 10.88 0 0 Z " fill="#75270D" transform="translate(448,160)"/>
<path d="M0 0 C52.8 0 105.6 0 160 0 C160 10.56 160 21.12 160 32 C170.56 32 181.12 32 192 32 C192 42.56 192 53.12 192 64 C202.56 64 213.12 64 224 64 C224 106.24 224 148.48 224 192 C213.44 192 202.88 192 192 192 C192 202.56 192 213.12 192 224 C181.44 224 170.88 224 160 224 C160 234.56 160 245.12 160 256 C149.44 256 138.88 256 128 256 C128 266.56 128 277.12 128 288 C117.44 288 106.88 288 96 288 C96 298.56 96 309.12 96 320 C74.88 320 53.76 320 32 320 C32 309.44 32 298.88 32 288 C21.44 288 10.88 288 0 288 C0 266.88 0 245.76 0 224 C-10.56 224 -21.12 224 -32 224 C-32 202.88 -32 181.76 -32 160 C-42.56 160 -53.12 160 -64 160 C-64 128.32 -64 96.64 -64 64 C-53.44 64 -42.88 64 -32 64 C-32 53.44 -32 42.88 -32 32 C-21.44 32 -10.88 32 0 32 C0 21.44 0 10.88 0 0 Z " fill="#FF6036" transform="translate(736,672)"/>
<path d="M0 0 C31.68 0 63.36 0 96 0 C96 31.68 96 63.36 96 96 C106.56 96 117.12 96 128 96 C128 106.56 128 117.12 128 128 C117.44 128 106.88 128 96 128 C96 159.68 96 191.36 96 224 C85.44 224 74.88 224 64 224 C64 276.8 64 329.6 64 384 C53.44 384 42.88 384 32 384 C32 362.88 32 341.76 32 320 C21.44 320 10.88 320 0 320 C0 309.44 0 298.88 0 288 C-10.56 288 -21.12 288 -32 288 C-32 277.44 -32 266.88 -32 256 C-42.56 256 -53.12 256 -64 256 C-64 245.44 -64 234.88 -64 224 C-74.56 224 -85.12 224 -96 224 C-96 192.32 -96 160.64 -96 128 C-85.44 128 -74.88 128 -64 128 C-64 117.44 -64 106.88 -64 96 C-53.44 96 -42.88 96 -32 96 C-32 74.88 -32 53.76 -32 32 C-21.44 32 -10.88 32 0 32 C0 21.44 0 10.88 0 0 Z " fill="#492B31" transform="translate(128,64)"/>
<path d="M0 0 C10.56 0 21.12 0 32 0 C32 21.12 32 42.24 32 64 C42.56 64 53.12 64 64 64 C64 74.56 64 85.12 64 96 C53.44 96 42.88 96 32 96 C32 106.56 32 117.12 32 128 C21.44 128 10.88 128 0 128 C0 138.56 0 149.12 0 160 C-10.56 160 -21.12 160 -32 160 C-32 191.68 -32 223.36 -32 256 C-53.12 256 -74.24 256 -96 256 C-96 234.88 -96 213.76 -96 192 C-106.56 192 -117.12 192 -128 192 C-128 223.68 -128 255.36 -128 288 C-117.44 288 -106.88 288 -96 288 C-96 330.24 -96 372.48 -96 416 C-127.68 416 -159.36 416 -192 416 C-192 405.44 -192 394.88 -192 384 C-181.44 384 -170.88 384 -160 384 C-160 362.88 -160 341.76 -160 320 C-170.56 320 -181.12 320 -192 320 C-192 288.32 -192 256.64 -192 224 C-181.44 224 -170.88 224 -160 224 C-160 192.32 -160 160.64 -160 128 C-149.44 128 -138.88 128 -128 128 C-128 117.44 -128 106.88 -128 96 C-106.88 96 -85.76 96 -64 96 C-64 85.44 -64 74.88 -64 64 C-53.44 64 -42.88 64 -32 64 C-32 53.44 -32 42.88 -32 32 C-21.44 32 -10.88 32 0 32 C0 21.44 0 10.88 0 0 Z " fill="#93452B" transform="translate(448,160)"/>
<path d="M0 0 C10.56 0 21.12 0 32 0 C32 10.56 32 21.12 32 32 C42.56 32 53.12 32 64 32 C64 53.12 64 74.24 64 96 C74.56 96 85.12 96 96 96 C96 138.24 96 180.48 96 224 C85.44 224 74.88 224 64 224 C64 255.68 64 287.36 64 320 C42.88 320 21.76 320 0 320 C0 330.56 0 341.12 0 352 C-63.36 352 -126.72 352 -192 352 C-192 341.44 -192 330.88 -192 320 C-181.44 320 -170.88 320 -160 320 C-160 309.44 -160 298.88 -160 288 C-149.44 288 -138.88 288 -128 288 C-128 298.56 -128 309.12 -128 320 C-117.44 320 -106.88 320 -96 320 C-96 309.44 -96 298.88 -96 288 C-74.88 288 -53.76 288 -32 288 C-32 277.44 -32 266.88 -32 256 C-21.44 256 -10.88 256 0 256 C0 234.88 0 213.76 0 192 C-21.12 192 -42.24 192 -64 192 C-64 181.44 -64 170.88 -64 160 C-42.88 160 -21.76 160 0 160 C0 107.2 0 54.4 0 0 Z " fill="#5E200A" transform="translate(544,256)"/>
<path d="M0 0 C21.12 0 42.24 0 64 0 C64 52.8 64 105.6 64 160 C53.44 160 42.88 160 32 160 C32 181.12 32 202.24 32 224 C21.44 224 10.88 224 0 224 C0 255.68 0 287.36 0 320 C-10.56 320 -21.12 320 -32 320 C-32 330.56 -32 341.12 -32 352 C-84.8 352 -137.6 352 -192 352 C-192 341.44 -192 330.88 -192 320 C-160.32 320 -128.64 320 -96 320 C-96 298.88 -96 277.76 -96 256 C-85.44 256 -74.88 256 -64 256 C-64 234.88 -64 213.76 -64 192 C-53.44 192 -42.88 192 -32 192 C-32 160.32 -32 128.64 -32 96 C-21.44 96 -10.88 96 0 96 C0 64.32 0 32.64 0 0 Z " fill="#66426C" transform="translate(288,672)"/>
<path d="M0 0 C42.24 0 84.48 0 128 0 C128 31.68 128 63.36 128 96 C117.44 96 106.88 96 96 96 C96 106.56 96 117.12 96 128 C85.44 128 74.88 128 64 128 C64 138.56 64 149.12 64 160 C53.44 160 42.88 160 32 160 C32 170.56 32 181.12 32 192 C0.32 192 -31.36 192 -64 192 C-64 170.88 -64 149.76 -64 128 C-74.56 128 -85.12 128 -96 128 C-96 106.88 -96 85.76 -96 64 C-74.88 64 -53.76 64 -32 64 C-32 53.44 -32 42.88 -32 32 C-21.44 32 -10.88 32 0 32 C0 21.44 0 10.88 0 0 Z " fill="#45234E" transform="translate(672,160)"/>
<path d="M0 0 C63.36 0 126.72 0 192 0 C192 10.56 192 21.12 192 32 C202.56 32 213.12 32 224 32 C224 74.24 224 116.48 224 160 C213.44 160 202.88 160 192 160 C192 170.56 192 181.12 192 192 C181.44 192 170.88 192 160 192 C160 202.56 160 213.12 160 224 C149.44 224 138.88 224 128 224 C128 202.88 128 181.76 128 160 C117.44 160 106.88 160 96 160 C96 128.32 96 96.64 96 64 C53.76 64 11.52 64 -32 64 C-32 53.44 -32 42.88 -32 32 C-21.44 32 -10.88 32 0 32 C0 21.44 0 10.88 0 0 Z " fill="#41272C" transform="translate(256,0)"/>
<path d="M0 0 C10.56 0 21.12 0 32 0 C32 10.56 32 21.12 32 32 C42.56 32 53.12 32 64 32 C64 63.68 64 95.36 64 128 C53.44 128 42.88 128 32 128 C32 170.24 32 212.48 32 256 C21.44 256 10.88 256 0 256 C0 277.12 0 298.24 0 320 C-31.68 320 -63.36 320 -96 320 C-96 309.44 -96 298.88 -96 288 C-85.44 288 -74.88 288 -64 288 C-64 256.32 -64 224.64 -64 192 C-53.44 192 -42.88 192 -32 192 C-32 170.88 -32 149.76 -32 128 C-21.44 128 -10.88 128 0 128 C0 85.76 0 43.52 0 0 Z " fill="#45234E" transform="translate(352,704)"/>
<path d="M0 0 C10.56 0 21.12 0 32 0 C32 10.56 32 21.12 32 32 C42.56 32 53.12 32 64 32 C64 63.68 64 95.36 64 128 C74.56 128 85.12 128 96 128 C96 149.12 96 170.24 96 192 C85.44 192 74.88 192 64 192 C64 202.56 64 213.12 64 224 C42.88 224 21.76 224 0 224 C0 213.44 0 202.88 0 192 C-10.56 192 -21.12 192 -32 192 C-32 170.88 -32 149.76 -32 128 C-42.56 128 -53.12 128 -64 128 C-64 106.88 -64 85.76 -64 64 C-53.44 64 -42.88 64 -32 64 C-32 53.44 -32 42.88 -32 32 C-21.44 32 -10.88 32 0 32 C0 21.44 0 10.88 0 0 Z " fill="#BC2126" transform="translate(768,768)"/>
<path d="M0 0 C10.56 0 21.12 0 32 0 C32 73.92 32 147.84 32 224 C42.56 224 53.12 224 64 224 C64 234.56 64 245.12 64 256 C74.56 256 85.12 256 96 256 C96 266.56 96 277.12 96 288 C43.2 288 -9.6 288 -64 288 C-64 266.88 -64 245.76 -64 224 C-53.44 224 -42.88 224 -32 224 C-32 181.76 -32 139.52 -32 96 C-21.44 96 -10.88 96 0 96 C0 64.32 0 32.64 0 0 Z " fill="#3F1034" transform="translate(416,736)"/>
<path d="M0 0 C10.56 0 21.12 0 32 0 C32 21.12 32 42.24 32 64 C21.44 64 10.88 64 0 64 C0 85.12 0 106.24 0 128 C-10.56 128 -21.12 128 -32 128 C-32 138.56 -32 149.12 -32 160 C-42.56 160 -53.12 160 -64 160 C-64 170.56 -64 181.12 -64 192 C-85.12 192 -106.24 192 -128 192 C-128 170.88 -128 149.76 -128 128 C-117.44 128 -106.88 128 -96 128 C-96 117.44 -96 106.88 -96 96 C-85.44 96 -74.88 96 -64 96 C-64 85.44 -64 74.88 -64 64 C-53.44 64 -42.88 64 -32 64 C-32 53.44 -32 42.88 -32 32 C-21.44 32 -10.88 32 0 32 C0 21.44 0 10.88 0 0 Z " fill="#FF4D2C" transform="translate(800,224)"/>
<path d="M0 0 C63.36 0 126.72 0 192 0 C192 21.12 192 42.24 192 64 C118.08 64 44.16 64 -32 64 C-32 53.44 -32 42.88 -32 32 C-21.44 32 -10.88 32 0 32 C0 21.44 0 10.88 0 0 Z " fill="#41272C" transform="translate(256,0)"/>
<path d="M0 0 C10.56 0 21.12 0 32 0 C32 10.56 32 21.12 32 32 C42.56 32 53.12 32 64 32 C64 63.68 64 95.36 64 128 C53.44 128 42.88 128 32 128 C32 149.12 32 170.24 32 192 C10.88 192 -10.24 192 -32 192 C-32 170.88 -32 149.76 -32 128 C-21.44 128 -10.88 128 0 128 C0 85.76 0 43.52 0 0 Z " fill="#45234E" transform="translate(352,704)"/>
<path d="M0 0 C42.24 0 84.48 0 128 0 C128 52.8 128 105.6 128 160 C117.44 160 106.88 160 96 160 C96 138.88 96 117.76 96 96 C85.44 96 74.88 96 64 96 C64 85.44 64 74.88 64 64 C53.44 64 42.88 64 32 64 C32 53.44 32 42.88 32 32 C21.44 32 10.88 32 0 32 C0 21.44 0 10.88 0 0 Z " fill="#41272C" transform="translate(64,288)"/>
<path d="M0 0 C10.56 0 21.12 0 32 0 C32 21.12 32 42.24 32 64 C42.56 64 53.12 64 64 64 C64 106.24 64 148.48 64 192 C42.88 192 21.76 192 0 192 C0 128.64 0 65.28 0 0 Z " fill="#513036" transform="translate(192,288)"/>
<path d="M0 0 C31.68 0 63.36 0 96 0 C96 10.56 96 21.12 96 32 C85.44 32 74.88 32 64 32 C64 74.24 64 116.48 64 160 C53.44 160 42.88 160 32 160 C32 170.56 32 181.12 32 192 C21.44 192 10.88 192 0 192 C0 170.88 0 149.76 0 128 C10.56 128 21.12 128 32 128 C32 106.88 32 85.76 32 64 C21.44 64 10.88 64 0 64 C0 42.88 0 21.76 0 0 Z " fill="#381C3F" transform="translate(800,160)"/>
<path d="M0 0 C42.24 0 84.48 0 128 0 C128 10.56 128 21.12 128 32 C117.44 32 106.88 32 96 32 C96 42.56 96 53.12 96 64 C85.44 64 74.88 64 64 64 C64 85.12 64 106.24 64 128 C53.44 128 42.88 128 32 128 C32 117.44 32 106.88 32 96 C21.44 96 10.88 96 0 96 C0 64.32 0 32.64 0 0 Z " fill="#513036" transform="translate(224,64)"/>
<path d="M0 0 C10.56 0 21.12 0 32 0 C32 21.12 32 42.24 32 64 C42.56 64 53.12 64 64 64 C64 85.12 64 106.24 64 128 C74.56 128 85.12 128 96 128 C96 138.56 96 149.12 96 160 C74.88 160 53.76 160 32 160 C32 149.44 32 138.88 32 128 C21.44 128 10.88 128 0 128 C0 85.76 0 43.52 0 0 Z " fill="#381C3F" transform="translate(672,832)"/>
<path d="M0 0 C10.56 0 21.12 0 32 0 C32 10.56 32 21.12 32 32 C42.56 32 53.12 32 64 32 C64 53.12 64 74.24 64 96 C53.44 96 42.88 96 32 96 C32 85.44 32 74.88 32 64 C21.44 64 10.88 64 0 64 C0 74.56 0 85.12 0 96 C-10.56 96 -21.12 96 -32 96 C-32 106.56 -32 117.12 -32 128 C-42.56 128 -53.12 128 -64 128 C-64 106.88 -64 85.76 -64 64 C-53.44 64 -42.88 64 -32 64 C-32 53.44 -32 42.88 -32 32 C-21.44 32 -10.88 32 0 32 C0 21.44 0 10.88 0 0 Z " fill="#A42126" transform="translate(768,768)"/>
<path d="M0 0 C10.56 0 21.12 0 32 0 C32 10.56 32 21.12 32 32 C42.56 32 53.12 32 64 32 C64 63.68 64 95.36 64 128 C42.88 128 21.76 128 0 128 C0 85.76 0 43.52 0 0 Z " fill="#381C3F" transform="translate(608,704)"/>
<path d="M0 0 C10.56 0 21.12 0 32 0 C32 42.24 32 84.48 32 128 C21.44 128 10.88 128 0 128 C0 149.12 0 170.24 0 192 C-10.56 192 -21.12 192 -32 192 C-32 160.32 -32 128.64 -32 96 C-21.44 96 -10.88 96 0 96 C0 64.32 0 32.64 0 0 Z " fill="#66375B" transform="translate(320,704)"/>
<path d="M0 0 C10.56 0 21.12 0 32 0 C32 10.56 32 21.12 32 32 C53.12 32 74.24 32 96 32 C96 42.56 96 53.12 96 64 C85.44 64 74.88 64 64 64 C64 74.56 64 85.12 64 96 C42.88 96 21.76 96 0 96 C0 85.44 0 74.88 0 64 C-10.56 64 -21.12 64 -32 64 C-32 53.44 -32 42.88 -32 32 C-21.44 32 -10.88 32 0 32 C0 21.44 0 10.88 0 0 Z " fill="#513036" transform="translate(864,352)"/>
<path d="M0 0 C10.56 0 21.12 0 32 0 C32 21.12 32 42.24 32 64 C42.56 64 53.12 64 64 64 C64 74.56 64 85.12 64 96 C74.56 96 85.12 96 96 96 C96 106.56 96 117.12 96 128 C85.44 128 74.88 128 64 128 C64 138.56 64 149.12 64 160 C53.44 160 42.88 160 32 160 C32 138.88 32 117.76 32 96 C21.44 96 10.88 96 0 96 C0 64.32 0 32.64 0 0 Z " fill="#381C3F" transform="translate(352,64)"/>
<path d="M0 0 C21.12 0 42.24 0 64 0 C64 10.56 64 21.12 64 32 C74.56 32 85.12 32 96 32 C96 42.56 96 53.12 96 64 C53.76 64 11.52 64 -32 64 C-32 53.44 -32 42.88 -32 32 C-21.44 32 -10.88 32 0 32 C0 21.44 0 10.88 0 0 Z " fill="#5E210A" transform="translate(416,960)"/>
<path d="M0 0 C31.68 0 63.36 0 96 0 C96 21.12 96 42.24 96 64 C64.32 64 32.64 64 0 64 C0 42.88 0 21.76 0 0 Z " fill="#8A3D55" transform="translate(224,576)"/>
<path d="M0 0 C31.68 0 63.36 0 96 0 C96 21.12 96 42.24 96 64 C64.32 64 32.64 64 0 64 C0 42.88 0 21.76 0 0 Z " fill="#513036" transform="translate(352,0)"/>
<path d="M0 0 C21.12 0 42.24 0 64 0 C64 21.12 64 42.24 64 64 C53.44 64 42.88 64 32 64 C32 74.56 32 85.12 32 96 C21.44 96 10.88 96 0 96 C0 64.32 0 32.64 0 0 Z " fill="#A32025" transform="translate(800,896)"/>
<path d="M0 0 C21.12 0 42.24 0 64 0 C64 31.68 64 63.36 64 96 C53.44 96 42.88 96 32 96 C32 85.44 32 74.88 32 64 C21.44 64 10.88 64 0 64 C0 42.88 0 21.76 0 0 Z " fill="#6B1E36" transform="translate(544,576)"/>
<path d="M0 0 C10.56 0 21.12 0 32 0 C32 10.56 32 21.12 32 32 C42.56 32 53.12 32 64 32 C64 53.12 64 74.24 64 96 C42.88 96 21.76 96 0 96 C0 64.32 0 32.64 0 0 Z " fill="#41272C" transform="translate(32,352)"/>
<path d="M0 0 C10.56 0 21.12 0 32 0 C32 21.12 32 42.24 32 64 C53.12 64 74.24 64 96 64 C96 74.56 96 85.12 96 96 C64.32 96 32.64 96 0 96 C0 64.32 0 32.64 0 0 Z " fill="#381C3F" transform="translate(640,352)"/>
<path d="M0 0 C10.56 0 21.12 0 32 0 C32 31.68 32 63.36 32 96 C0.32 96 -31.36 96 -64 96 C-64 85.44 -64 74.88 -64 64 C-42.88 64 -21.76 64 0 64 C0 42.88 0 21.76 0 0 Z " fill="#000000" transform="translate(544,352)"/>
<path d="M0 0 C10.56 0 21.12 0 32 0 C32 21.12 32 42.24 32 64 C53.12 64 74.24 64 96 64 C96 74.56 96 85.12 96 96 C64.32 96 32.64 96 0 96 C0 64.32 0 32.64 0 0 Z " fill="#343434" transform="translate(320,352)"/>
<path d="M0 0 C21.12 0 42.24 0 64 0 C64 21.12 64 42.24 64 64 C53.44 64 42.88 64 32 64 C32 74.56 32 85.12 32 96 C21.44 96 10.88 96 0 96 C0 64.32 0 32.64 0 0 Z " fill="#513036" transform="translate(672,64)"/>
<path d="M0 0 C21.12 0 42.24 0 64 0 C64 21.12 64 42.24 64 64 C32.32 64 0.64 64 -32 64 C-32 53.44 -32 42.88 -32 32 C-21.44 32 -10.88 32 0 32 C0 21.44 0 10.88 0 0 Z " fill="#513036" transform="translate(832,64)"/>
<path d="M0 0 C10.56 0 21.12 0 32 0 C32 42.24 32 84.48 32 128 C21.44 128 10.88 128 0 128 C0 85.76 0 43.52 0 0 Z " fill="#330D2A" transform="translate(576,704)"/>
<path d="M0 0 C10.56 0 21.12 0 32 0 C32 21.12 32 42.24 32 64 C0.32 64 -31.36 64 -64 64 C-64 53.44 -64 42.88 -64 32 C-42.88 32 -21.76 32 0 32 C0 21.44 0 10.88 0 0 Z " fill="#513036" transform="translate(736,416)"/>
<path d="M0 0 C10.56 0 21.12 0 32 0 C32 31.68 32 63.36 32 96 C10.88 96 -10.24 96 -32 96 C-32 85.44 -32 74.88 -32 64 C-21.44 64 -10.88 64 0 64 C0 42.88 0 21.76 0 0 Z " fill="#41272C" transform="translate(96,96)"/>
<path d="M0 0 C31.68 0 63.36 0 96 0 C96 10.56 96 21.12 96 32 C64.32 32 32.64 32 0 32 C0 21.44 0 10.88 0 0 Z " fill="#5D4164" transform="translate(768,992)"/>
<path d="M0 0 C10.56 0 21.12 0 32 0 C32 21.12 32 42.24 32 64 C10.88 64 -10.24 64 -32 64 C-32 53.44 -32 42.88 -32 32 C-21.44 32 -10.88 32 0 32 C0 21.44 0 10.88 0 0 Z " fill="#4C1C08" transform="translate(416,960)"/>
<path d="M0 0 C10.56 0 21.12 0 32 0 C32 31.68 32 63.36 32 96 C21.44 96 10.88 96 0 96 C0 64.32 0 32.64 0 0 Z " fill="#5D4164" transform="translate(640,736)"/>
<path d="M0 0 C10.56 0 21.12 0 32 0 C32 21.12 32 42.24 32 64 C10.88 64 -10.24 64 -32 64 C-32 53.44 -32 42.88 -32 32 C-21.44 32 -10.88 32 0 32 C0 21.44 0 10.88 0 0 Z " fill="#FF6036" transform="translate(512,352)"/>
<path d="M0 0 C10.56 0 21.12 0 32 0 C32 21.12 32 42.24 32 64 C10.88 64 -10.24 64 -32 64 C-32 53.44 -32 42.88 -32 32 C-21.44 32 -10.88 32 0 32 C0 21.44 0 10.88 0 0 Z " fill="#FF6036" transform="translate(384,352)"/>
<path d="M0 0 C10.56 0 21.12 0 32 0 C32 31.68 32 63.36 32 96 C21.44 96 10.88 96 0 96 C0 64.32 0 32.64 0 0 Z " fill="#66446F" transform="translate(224,192)"/>
<path d="M0 0 C10.56 0 21.12 0 32 0 C32 31.68 32 63.36 32 96 C21.44 96 10.88 96 0 96 C0 64.32 0 32.64 0 0 Z " fill="#41272C" transform="translate(32,192)"/>
<path d="M0 0 C31.68 0 63.36 0 96 0 C96 10.56 96 21.12 96 32 C64.32 32 32.64 32 0 32 C0 21.44 0 10.88 0 0 Z " fill="#66446F" transform="translate(672,160)"/>
<path d="M0 0 C21.12 0 42.24 0 64 0 C64 21.12 64 42.24 64 64 C53.44 64 42.88 64 32 64 C32 53.44 32 42.88 32 32 C21.44 32 10.88 32 0 32 C0 21.44 0 10.88 0 0 Z " fill="#66446F" transform="translate(224,128)"/>
<path d="M0 0 C21.12 0 42.24 0 64 0 C64 10.56 64 21.12 64 32 C53.44 32 42.88 32 32 32 C32 42.56 32 53.12 32 64 C21.44 64 10.88 64 0 64 C0 42.88 0 21.76 0 0 Z " fill="#66446F" transform="translate(288,64)"/>
<path d="M0 0 C21.12 0 42.24 0 64 0 C64 10.56 64 21.12 64 32 C42.88 32 21.76 32 0 32 C0 21.44 0 10.88 0 0 Z " fill="#66446F" transform="translate(96,992)"/>
<path d="M0 0 C10.56 0 21.12 0 32 0 C32 21.12 32 42.24 32 64 C21.44 64 10.88 64 0 64 C0 42.88 0 21.76 0 0 Z " fill="#330D2A" transform="translate(576,960)"/>
<path d="M0 0 C10.56 0 21.12 0 32 0 C32 21.12 32 42.24 32 64 C21.44 64 10.88 64 0 64 C0 42.88 0 21.76 0 0 Z " fill="#330D2A" transform="translate(640,896)"/>
<path d="M0 0 C10.56 0 21.12 0 32 0 C32 21.12 32 42.24 32 64 C21.44 64 10.88 64 0 64 C0 42.88 0 21.76 0 0 Z " fill="#330D2A" transform="translate(544,896)"/>
<path d="M0 0 C21.12 0 42.24 0 64 0 C64 10.56 64 21.12 64 32 C42.88 32 21.76 32 0 32 C0 21.44 0 10.88 0 0 Z " fill="#66446F" transform="translate(320,896)"/>
<path d="M0 0 C10.56 0 21.12 0 32 0 C32 21.12 32 42.24 32 64 C21.44 64 10.88 64 0 64 C0 42.88 0 21.76 0 0 Z " fill="#66375B" transform="translate(256,896)"/>
<path d="M0 0 C10.56 0 21.12 0 32 0 C32 21.12 32 42.24 32 64 C21.44 64 10.88 64 0 64 C0 42.88 0 21.76 0 0 Z " fill="#5D4164" transform="translate(672,832)"/>
<path d="M0 0 C10.56 0 21.12 0 32 0 C32 21.12 32 42.24 32 64 C21.44 64 10.88 64 0 64 C0 42.88 0 21.76 0 0 Z " fill="#330D2A" transform="translate(608,832)"/>
<path d="M0 0 C21.12 0 42.24 0 64 0 C64 10.56 64 21.12 64 32 C42.88 32 21.76 32 0 32 C0 21.44 0 10.88 0 0 Z " fill="#5D4164" transform="translate(288,672)"/>
<path d="M0 0 C21.12 0 42.24 0 64 0 C64 10.56 64 21.12 64 32 C42.88 32 21.76 32 0 32 C0 21.44 0 10.88 0 0 Z " fill="#6B1E36" transform="translate(416,608)"/>
<path d="M0 0 C10.56 0 21.12 0 32 0 C32 21.12 32 42.24 32 64 C21.44 64 10.88 64 0 64 C0 42.88 0 21.76 0 0 Z " fill="#6B1E36" transform="translate(288,576)"/>
<path d="M0 0 C10.56 0 21.12 0 32 0 C32 21.12 32 42.24 32 64 C21.44 64 10.88 64 0 64 C0 42.88 0 21.76 0 0 Z " fill="#56182C" transform="translate(224,576)"/>
<path d="M0 0 C21.12 0 42.24 0 64 0 C64 10.56 64 21.12 64 32 C42.88 32 21.76 32 0 32 C0 21.44 0 10.88 0 0 Z " fill="#4C1C08" transform="translate(448,544)"/>
<path d="M0 0 C21.12 0 42.24 0 64 0 C64 10.56 64 21.12 64 32 C42.88 32 21.76 32 0 32 C0 21.44 0 10.88 0 0 Z " fill="#41272C" transform="translate(192,448)"/>
<path d="M0 0 C21.12 0 42.24 0 64 0 C64 10.56 64 21.12 64 32 C42.88 32 21.76 32 0 32 C0 21.44 0 10.88 0 0 Z " fill="#000000" transform="translate(352,416)"/>
<path d="M0 0 C10.56 0 21.12 0 32 0 C32 21.12 32 42.24 32 64 C21.44 64 10.88 64 0 64 C0 42.88 0 21.76 0 0 Z " fill="#66446F" transform="translate(224,352)"/>
<path d="M0 0 C10.56 0 21.12 0 32 0 C32 21.12 32 42.24 32 64 C21.44 64 10.88 64 0 64 C0 42.88 0 21.76 0 0 Z " fill="#513036" transform="translate(32,352)"/>
<path d="M0 0 C10.56 0 21.12 0 32 0 C32 21.12 32 42.24 32 64 C21.44 64 10.88 64 0 64 C0 42.88 0 21.76 0 0 Z " fill="#66446F" transform="translate(192,288)"/>
<path d="M0 0 C21.12 0 42.24 0 64 0 C64 10.56 64 21.12 64 32 C42.88 32 21.76 32 0 32 C0 21.44 0 10.88 0 0 Z " fill="#66446F" transform="translate(576,224)"/>
<path d="M0 0 C10.56 0 21.12 0 32 0 C32 21.12 32 42.24 32 64 C21.44 64 10.88 64 0 64 C0 42.88 0 21.76 0 0 Z " fill="#513036" transform="translate(896,192)"/>
<path d="M0 0 C21.12 0 42.24 0 64 0 C64 10.56 64 21.12 64 32 C42.88 32 21.76 32 0 32 C0 21.44 0 10.88 0 0 Z " fill="#5E200B" transform="translate(512,192)"/>
<path d="M0 0 C21.12 0 42.24 0 64 0 C64 10.56 64 21.12 64 32 C42.88 32 21.76 32 0 32 C0 21.44 0 10.88 0 0 Z " fill="#41272C" transform="translate(672,64)"/>
<path d="M0 0 C21.12 0 42.24 0 64 0 C64 10.56 64 21.12 64 32 C42.88 32 21.76 32 0 32 C0 21.44 0 10.88 0 0 Z " fill="#513036" transform="translate(704,0)"/>
<path d="M0 0 C10.56 0 21.12 0 32 0 C32 10.56 32 21.12 32 32 C21.44 32 10.88 32 0 32 C0 21.44 0 10.88 0 0 Z " fill="#330D2A" transform="translate(704,992)"/>
<path d="M0 0 C10.56 0 21.12 0 32 0 C32 10.56 32 21.12 32 32 C21.44 32 10.88 32 0 32 C0 21.44 0 10.88 0 0 Z " fill="#5E200B" transform="translate(384,992)"/>
<path d="M0 0 C10.56 0 21.12 0 32 0 C32 10.56 32 21.12 32 32 C21.44 32 10.88 32 0 32 C0 21.44 0 10.88 0 0 Z " fill="#FF6036" transform="translate(800,960)"/>
<path d="M0 0 C10.56 0 21.12 0 32 0 C32 10.56 32 21.12 32 32 C21.44 32 10.88 32 0 32 C0 21.44 0 10.88 0 0 Z " fill="#A8252A" transform="translate(768,960)"/>
<path d="M0 0 C10.56 0 21.12 0 32 0 C32 10.56 32 21.12 32 32 C21.44 32 10.88 32 0 32 C0 21.44 0 10.88 0 0 Z " fill="#5D4164" transform="translate(736,960)"/>
<path d="M0 0 C10.56 0 21.12 0 32 0 C32 10.56 32 21.12 32 32 C21.44 32 10.88 32 0 32 C0 21.44 0 10.88 0 0 Z " fill="#330D2A" transform="translate(672,960)"/>
<path d="M0 0 C10.56 0 21.12 0 32 0 C32 10.56 32 21.12 32 32 C21.44 32 10.88 32 0 32 C0 21.44 0 10.88 0 0 Z " fill="#45234E" transform="translate(384,960)"/>
<path d="M0 0 C10.56 0 21.12 0 32 0 C32 10.56 32 21.12 32 32 C21.44 32 10.88 32 0 32 C0 21.44 0 10.88 0 0 Z " fill="#66375B" transform="translate(224,960)"/>
<path d="M0 0 C10.56 0 21.12 0 32 0 C32 10.56 32 21.12 32 32 C21.44 32 10.88 32 0 32 C0 21.44 0 10.88 0 0 Z " fill="#FF6036" transform="translate(832,928)"/>
<path d="M0 0 C10.56 0 21.12 0 32 0 C32 10.56 32 21.12 32 32 C21.44 32 10.88 32 0 32 C0 21.44 0 10.88 0 0 Z " fill="#5D4164" transform="translate(704,896)"/>
<path d="M0 0 C10.56 0 21.12 0 32 0 C32 10.56 32 21.12 32 32 C21.44 32 10.88 32 0 32 C0 21.44 0 10.88 0 0 Z " fill="#99161B" transform="translate(864,864)"/>
<path d="M0 0 C10.56 0 21.12 0 32 0 C32 10.56 32 21.12 32 32 C21.44 32 10.88 32 0 32 C0 21.44 0 10.88 0 0 Z " fill="#330D2A" transform="translate(512,864)"/>
<path d="M0 0 C10.56 0 21.12 0 32 0 C32 10.56 32 21.12 32 32 C21.44 32 10.88 32 0 32 C0 21.44 0 10.88 0 0 Z " fill="#54385B" transform="translate(672,832)"/>
<path d="M0 0 C10.56 0 21.12 0 32 0 C32 10.56 32 21.12 32 32 C21.44 32 10.88 32 0 32 C0 21.44 0 10.88 0 0 Z " fill="#330D2A" transform="translate(480,832)"/>
<path d="M0 0 C10.56 0 21.12 0 32 0 C32 10.56 32 21.12 32 32 C21.44 32 10.88 32 0 32 C0 21.44 0 10.88 0 0 Z " fill="#66446F" transform="translate(320,800)"/>
<path d="M0 0 C10.56 0 21.12 0 32 0 C32 10.56 32 21.12 32 32 C21.44 32 10.88 32 0 32 C0 21.44 0 10.88 0 0 Z " fill="#971419" transform="translate(736,736)"/>
<path d="M0 0 C10.56 0 21.12 0 32 0 C32 10.56 32 21.12 32 32 C21.44 32 10.88 32 0 32 C0 21.44 0 10.88 0 0 Z " fill="#381C3F" transform="translate(352,704)"/>
<path d="M0 0 C10.56 0 21.12 0 32 0 C32 10.56 32 21.12 32 32 C21.44 32 10.88 32 0 32 C0 21.44 0 10.88 0 0 Z " fill="#6B1E36" transform="translate(416,640)"/>
<path d="M0 0 C10.56 0 21.12 0 32 0 C32 10.56 32 21.12 32 32 C21.44 32 10.88 32 0 32 C0 21.44 0 10.88 0 0 Z " fill="#8A3D55" transform="translate(544,608)"/>
<path d="M0 0 C10.56 0 21.12 0 32 0 C32 10.56 32 21.12 32 32 C21.44 32 10.88 32 0 32 C0 21.44 0 10.88 0 0 Z " fill="#8A3D55" transform="translate(416,608)"/>
<path d="M0 0 C10.56 0 21.12 0 32 0 C32 10.56 32 21.12 32 32 C21.44 32 10.88 32 0 32 C0 21.44 0 10.88 0 0 Z " fill="#56182C" transform="translate(256,544)"/>
<path d="M0 0 C10.56 0 21.12 0 32 0 C32 10.56 32 21.12 32 32 C21.44 32 10.88 32 0 32 C0 21.44 0 10.88 0 0 Z " fill="#4C1C08" transform="translate(512,512)"/>
<path d="M0 0 C10.56 0 21.12 0 32 0 C32 10.56 32 21.12 32 32 C21.44 32 10.88 32 0 32 C0 21.44 0 10.88 0 0 Z " fill="#5F2309" transform="translate(416,512)"/>
<path d="M0 0 C10.56 0 21.12 0 32 0 C32 10.56 32 21.12 32 32 C21.44 32 10.88 32 0 32 C0 21.44 0 10.88 0 0 Z " fill="#5F2309" transform="translate(352,512)"/>
<path d="M0 0 C10.56 0 21.12 0 32 0 C32 10.56 32 21.12 32 32 C21.44 32 10.88 32 0 32 C0 21.44 0 10.88 0 0 Z " fill="#6B1E36" transform="translate(224,512)"/>
<path d="M0 0 C10.56 0 21.12 0 32 0 C32 10.56 32 21.12 32 32 C21.44 32 10.88 32 0 32 C0 21.44 0 10.88 0 0 Z " fill="#381C3F" transform="translate(736,384)"/>
<path d="M0 0 C10.56 0 21.12 0 32 0 C32 10.56 32 21.12 32 32 C21.44 32 10.88 32 0 32 C0 21.44 0 10.88 0 0 Z " fill="#381C3F" transform="translate(768,352)"/>
<path d="M0 0 C10.56 0 21.12 0 32 0 C32 10.56 32 21.12 32 32 C21.44 32 10.88 32 0 32 C0 21.44 0 10.88 0 0 Z " fill="#FFFFFF" transform="translate(512,352)"/>
<path d="M0 0 C10.56 0 21.12 0 32 0 C32 10.56 32 21.12 32 32 C21.44 32 10.88 32 0 32 C0 21.44 0 10.88 0 0 Z " fill="#6B0004" transform="translate(480,352)"/>
<path d="M0 0 C10.56 0 21.12 0 32 0 C32 10.56 32 21.12 32 32 C21.44 32 10.88 32 0 32 C0 21.44 0 10.88 0 0 Z " fill="#FFFFFF" transform="translate(384,352)"/>
<path d="M0 0 C10.56 0 21.12 0 32 0 C32 10.56 32 21.12 32 32 C21.44 32 10.88 32 0 32 C0 21.44 0 10.88 0 0 Z " fill="#93282C" transform="translate(352,352)"/>
<path d="M0 0 C10.56 0 21.12 0 32 0 C32 10.56 32 21.12 32 32 C21.44 32 10.88 32 0 32 C0 21.44 0 10.88 0 0 Z " fill="#381C3F" transform="translate(672,320)"/>
<path d="M0 0 C10.56 0 21.12 0 32 0 C32 10.56 32 21.12 32 32 C21.44 32 10.88 32 0 32 C0 21.44 0 10.88 0 0 Z " fill="#381C3F" transform="translate(704,288)"/>
<path d="M0 0 C10.56 0 21.12 0 32 0 C32 10.56 32 21.12 32 32 C21.44 32 10.88 32 0 32 C0 21.44 0 10.88 0 0 Z " fill="#381C3F" transform="translate(736,256)"/>
<path d="M0 0 C10.56 0 21.12 0 32 0 C32 10.56 32 21.12 32 32 C21.44 32 10.88 32 0 32 C0 21.44 0 10.88 0 0 Z " fill="#381C3F" transform="translate(768,224)"/>
<path d="M0 0 C10.56 0 21.12 0 32 0 C32 10.56 32 21.12 32 32 C21.44 32 10.88 32 0 32 C0 21.44 0 10.88 0 0 Z " fill="#5E200B" transform="translate(512,224)"/>
<path d="M0 0 C10.56 0 21.12 0 32 0 C32 10.56 32 21.12 32 32 C21.44 32 10.88 32 0 32 C0 21.44 0 10.88 0 0 Z " fill="#66446F" transform="translate(640,192)"/>
<path d="M0 0 C10.56 0 21.12 0 32 0 C32 10.56 32 21.12 32 32 C21.44 32 10.88 32 0 32 C0 21.44 0 10.88 0 0 Z " fill="#93452B" transform="translate(512,192)"/>
<path d="M0 0 C10.56 0 21.12 0 32 0 C32 10.56 32 21.12 32 32 C21.44 32 10.88 32 0 32 C0 21.44 0 10.88 0 0 Z " fill="#5D4164" transform="translate(352,32)"/>
</svg>
